<svg width="358" height="51" viewBox="0 0 358 51" fill="none" xmlns="http://www.w3.org/2000/svg">
<rect width="358" height="50.152" rx="2" fill="black"/>
<path d="M155.836 22.6628C155.695 22.2324 155.51 21.8468 155.28 21.5059C155.054 21.1607 154.783 20.8667 154.468 20.6238C154.157 20.3809 153.803 20.1955 153.407 20.0677C153.011 19.9398 152.576 19.8759 152.103 19.8759C151.327 19.8759 150.622 20.0762 149.987 20.4768C149.352 20.8773 148.847 21.4675 148.472 22.2474C148.097 23.0272 147.91 23.9839 147.91 25.1174C147.91 26.2509 148.099 27.2076 148.479 27.9874C148.858 28.7672 149.371 29.3574 150.019 29.758C150.667 30.1586 151.396 30.3589 152.205 30.3589C152.955 30.3589 153.616 30.1991 154.187 29.8795C154.762 29.5556 155.209 29.0996 155.529 28.5116C155.853 27.9192 156.015 27.2225 156.015 26.4214L156.501 26.5236H152.563V25.1174H157.549V26.5236C157.549 27.6018 157.319 28.5393 156.859 29.3361C156.403 30.133 155.772 30.7509 154.967 31.1898C154.165 31.6245 153.245 31.8418 152.205 31.8418C151.046 31.8418 150.028 31.5691 149.15 31.0236C148.276 30.4782 147.594 29.7026 147.104 28.6969C146.619 27.6913 146.376 26.4981 146.376 25.1174C146.376 24.0819 146.514 23.1508 146.791 22.3241C147.072 21.4931 147.469 20.7857 147.98 20.2019C148.491 19.6181 149.097 19.1707 149.795 18.8596C150.494 18.5485 151.263 18.393 152.103 18.393C152.793 18.393 153.437 18.4974 154.033 18.7062C154.634 18.9107 155.169 19.2026 155.638 19.5819C156.111 19.9569 156.505 20.4064 156.82 20.9306C157.136 21.4505 157.353 22.0279 157.472 22.6628H155.836ZM166.247 27.6486V21.8447H167.755V31.6628H166.247V30.0009H166.145C165.915 30.4995 165.557 30.9235 165.071 31.2729C164.585 31.6181 163.971 31.7907 163.23 31.7907C162.616 31.7907 162.071 31.6564 161.593 31.388C161.116 31.1153 160.741 30.7062 160.468 30.1607C160.196 29.611 160.059 28.9185 160.059 28.0833V21.8447H161.568V27.981C161.568 28.6969 161.768 29.268 162.169 29.6941C162.574 30.1202 163.089 30.3333 163.716 30.3333C164.091 30.3333 164.472 30.2374 164.86 30.0457C165.252 29.8539 165.58 29.5599 165.844 29.1636C166.113 28.7672 166.247 28.2623 166.247 27.6486ZM173.408 31.893C172.785 31.893 172.221 31.7758 171.714 31.5414C171.207 31.3028 170.804 30.9597 170.506 30.5123C170.207 30.0606 170.058 29.5151 170.058 28.8759C170.058 28.3134 170.169 27.8574 170.391 27.508C170.612 27.1543 170.908 26.8773 171.279 26.677C171.65 26.4768 172.059 26.3276 172.506 26.2296C172.958 26.1273 173.412 26.0464 173.868 25.9867C174.464 25.91 174.948 25.8525 175.319 25.8141C175.694 25.7715 175.967 25.7012 176.137 25.6032C176.312 25.5052 176.399 25.3347 176.399 25.0918V25.0407C176.399 24.41 176.226 23.9199 175.881 23.5705C175.54 23.2211 175.023 23.0464 174.328 23.0464C173.608 23.0464 173.043 23.204 172.634 23.5194C172.225 23.8347 171.937 24.1714 171.771 24.5293L170.339 24.018C170.595 23.4214 170.936 22.9569 171.362 22.6245C171.793 22.2878 172.261 22.0535 172.768 21.9214C173.28 21.785 173.783 21.7168 174.277 21.7168C174.592 21.7168 174.954 21.7552 175.364 21.8319C175.777 21.9043 176.175 22.0556 176.559 22.2857C176.947 22.5158 177.268 22.8631 177.524 23.3276C177.78 23.7921 177.908 24.4143 177.908 25.1941V31.6628H176.399V30.3333H176.322C176.22 30.5464 176.05 30.7743 175.811 31.0172C175.572 31.2601 175.255 31.4668 174.859 31.6373C174.462 31.8077 173.979 31.893 173.408 31.893ZM173.638 30.5378C174.234 30.5378 174.737 30.4207 175.146 30.1863C175.56 29.9519 175.871 29.6493 176.079 29.2786C176.293 28.9079 176.399 28.518 176.399 28.1089V26.7282C176.335 26.8049 176.195 26.8752 175.977 26.9391C175.764 26.9988 175.517 27.052 175.236 27.0989C174.959 27.1415 174.688 27.1799 174.424 27.214C174.164 27.2438 173.953 27.2694 173.791 27.2907C173.399 27.3418 173.033 27.4249 172.692 27.54C172.355 27.6508 172.082 27.8191 171.873 28.0449C171.669 28.2665 171.567 28.5691 171.567 28.9526C171.567 29.4768 171.761 29.8731 172.148 30.1415C172.54 30.4057 173.037 30.5378 173.638 30.5378ZM180.661 31.6628V21.8447H182.118V23.3276H182.221C182.4 22.8418 182.723 22.4476 183.192 22.1451C183.661 21.8425 184.189 21.6913 184.777 21.6913C184.888 21.6913 185.027 21.6934 185.193 21.6976C185.359 21.7019 185.485 21.7083 185.57 21.7168V23.2509C185.519 23.2381 185.402 23.2189 185.218 23.1934C185.04 23.1636 184.85 23.1486 184.65 23.1486C184.172 23.1486 183.746 23.2488 183.371 23.4491C183 23.6451 182.706 23.9178 182.489 24.2672C182.276 24.6124 182.169 25.0066 182.169 25.4498V31.6628H180.661ZM190.767 31.8674C189.949 31.8674 189.226 31.6607 188.6 31.2474C187.973 30.8297 187.483 30.2417 187.13 29.4832C186.776 28.7204 186.599 27.8191 186.599 26.7793C186.599 25.7481 186.776 24.8532 187.13 24.0947C187.483 23.3361 187.976 22.7502 188.606 22.3368C189.237 21.9235 189.966 21.7168 190.792 21.7168C191.432 21.7168 191.937 21.8234 192.307 22.0364C192.682 22.2452 192.968 22.4839 193.164 22.7523C193.364 23.0165 193.52 23.2339 193.63 23.4043H193.758V18.5719H195.267V31.6628H193.809V30.1543H193.63C193.52 30.3333 193.362 30.5591 193.157 30.8319C192.953 31.1003 192.661 31.3411 192.282 31.5542C191.902 31.763 191.397 31.8674 190.767 31.8674ZM190.971 30.5123C191.576 30.5123 192.088 30.3546 192.505 30.0393C192.923 29.7197 193.241 29.2786 193.458 28.7161C193.675 28.1493 193.784 27.4952 193.784 26.7538C193.784 26.0208 193.677 25.3795 193.464 24.8297C193.251 24.2758 192.936 23.8454 192.518 23.5386C192.101 23.2275 191.585 23.0719 190.971 23.0719C190.332 23.0719 189.799 23.236 189.373 23.5641C188.951 23.888 188.634 24.329 188.421 24.8873C188.212 25.4413 188.108 26.0634 188.108 26.7538C188.108 27.4526 188.214 28.0876 188.427 28.6586C188.645 29.2253 188.964 29.677 189.386 30.0137C189.812 30.3461 190.341 30.5123 190.971 30.5123ZM201.128 31.893C200.506 31.893 199.941 31.7758 199.434 31.5414C198.927 31.3028 198.525 30.9597 198.226 30.5123C197.928 30.0606 197.779 29.5151 197.779 28.8759C197.779 28.3134 197.89 27.8574 198.111 27.508C198.333 27.1543 198.629 26.8773 199 26.677C199.37 26.4768 199.78 26.3276 200.227 26.2296C200.679 26.1273 201.133 26.0464 201.589 25.9867C202.185 25.91 202.669 25.8525 203.04 25.8141C203.415 25.7715 203.687 25.7012 203.858 25.6032C204.032 25.5052 204.12 25.3347 204.12 25.0918V25.0407C204.12 24.41 203.947 23.9199 203.602 23.5705C203.261 23.2211 202.743 23.0464 202.049 23.0464C201.329 23.0464 200.764 23.204 200.355 23.5194C199.946 23.8347 199.658 24.1714 199.492 24.5293L198.06 24.018C198.316 23.4214 198.657 22.9569 199.083 22.6245C199.513 22.2878 199.982 22.0535 200.489 21.9214C201 21.785 201.503 21.7168 201.998 21.7168C202.313 21.7168 202.675 21.7552 203.084 21.8319C203.498 21.9043 203.896 22.0556 204.28 22.2857C204.667 22.5158 204.989 22.8631 205.245 23.3276C205.5 23.7921 205.628 24.4143 205.628 25.1941V31.6628H204.12V30.3333H204.043C203.941 30.5464 203.77 30.7743 203.532 31.0172C203.293 31.2601 202.976 31.4668 202.579 31.6373C202.183 31.8077 201.699 31.893 201.128 31.893ZM201.358 30.5378C201.955 30.5378 202.458 30.4207 202.867 30.1863C203.28 29.9519 203.591 29.6493 203.8 29.2786C204.013 28.9079 204.12 28.518 204.12 28.1089V26.7282C204.056 26.8049 203.915 26.8752 203.698 26.9391C203.485 26.9988 203.238 27.052 202.956 27.0989C202.679 27.1415 202.409 27.1799 202.145 27.214C201.885 27.2438 201.674 27.2694 201.512 27.2907C201.12 27.3418 200.753 27.4249 200.412 27.54C200.076 27.6508 199.803 27.8191 199.594 28.0449C199.39 28.2665 199.287 28.5691 199.287 28.9526C199.287 29.4768 199.481 29.8731 199.869 30.1415C200.261 30.4057 200.758 30.5378 201.358 30.5378ZM208.382 31.6628V21.8447H209.839V23.3276H209.941C210.12 22.8418 210.444 22.4476 210.913 22.1451C211.382 21.8425 211.91 21.6913 212.498 21.6913C212.609 21.6913 212.747 21.6934 212.914 21.6976C213.08 21.7019 213.206 21.7083 213.291 21.7168V23.2509C213.24 23.2381 213.122 23.2189 212.939 23.1934C212.76 23.1636 212.571 23.1486 212.37 23.1486C211.893 23.1486 211.467 23.2488 211.092 23.4491C210.721 23.6451 210.427 23.9178 210.21 24.2672C209.997 24.6124 209.89 25.0066 209.89 25.4498V31.6628H208.382Z" fill="white"/>
</svg>
